<svg id="Layer_1" data-name="Layer 1" xmlns="http://www.w3.org/2000/svg" viewBox="0 0 101 101"><title>dientich</title><path d="M92,95H64.35a3,3,0,0,0-3,3h0a3,3,0,0,0,3,3H92.1a8.93,8.93,0,0,0,8.9-8.9V64.35a3,3,0,0,0-3-3h0a3,3,0,0,0-3,3V92A3,3,0,0,1,92,95Zm.1-95H64.35a3,3,0,0,0-3,3h0a3,3,0,0,0,3,3H92a3,3,0,0,1,3,3V36.65a3,3,0,0,0,3,3h0a3,3,0,0,0,3-3V8.9A8.93,8.93,0,0,0,92.1,0ZM3,61.35H3a3,3,0,0,0-3,3V92.1A8.93,8.93,0,0,0,8.9,101H36.65a3,3,0,0,0,3-3h0a3,3,0,0,0-3-3H9a3,3,0,0,1-3-3V64.35A3,3,0,0,0,3,61.35ZM0,8.9V36.65a3,3,0,0,0,3,3H3a3,3,0,0,0,3-3V9A3,3,0,0,1,9,6H36.65a3,3,0,0,0,3-3h0a3,3,0,0,0-3-3H8.9A8.93,8.93,0,0,0,0,8.9Z" transform="translate(0 0)" style="fill:#9e9e9e"/></svg>