<svg id="Layer_1" data-name="Layer 1" xmlns="http://www.w3.org/2000/svg" viewBox="0 0 102 99.66"><title>bath</title><path d="M85,11.67H68.6c-12.37,0-22.54,8.4-23.45,19a6.59,6.59,0,0,0-2.48,1.58l-5.39,5.39a6.93,6.93,0,0,0,4.9,11.83H53a6.93,6.93,0,0,0,4.9-11.83l-5.38-5.39a7,7,0,0,0-2.31-1.53c.92-7.9,8.83-14.08,18.44-14.08H85c10.22,0,18.54,7,18.54,15.61V73.61H14.74A8.25,8.25,0,0,0,6.5,81.85v9.31a20.2,20.2,0,0,0,20.17,20.17H88.33A20.2,20.2,0,0,0,108.5,91.16V32.28C108.5,20.92,97.94,11.67,85,11.67ZM54.32,41.2a1.93,1.93,0,0,1,.42,2.11A1.9,1.9,0,0,1,53,44.5H42.18a1.93,1.93,0,0,1-1.37-3.29l5.39-5.39a1.92,1.92,0,0,1,2.73,0Zm49.18,50a15.19,15.19,0,0,1-15.17,15.17H26.67A15.19,15.19,0,0,1,11.5,91.16V81.85a3.25,3.25,0,0,1,3.24-3.24H103.5Z" transform="translate(-6.5 -11.67)"/></svg>