<svg id="Layer_1" data-name="Layer 1" xmlns="http://www.w3.org/2000/svg" viewBox="0 0 112 65"><title>bed</title><path d="M106.19,60.33h-4.44A7.89,7.89,0,0,0,103,56.06V42.94A8,8,0,0,0,95.06,35H24.94A8,8,0,0,0,17,42.94V56.06a7.89,7.89,0,0,0,1.25,4.27H13.81A9.83,9.83,0,0,0,4,70.15v20A9.82,9.82,0,0,0,13.81,100h92.38A9.82,9.82,0,0,0,116,90.19v-20A9.83,9.83,0,0,0,106.19,60.33ZM21,42.94A4,4,0,0,1,24.94,39H95.06A4,4,0,0,1,99,42.94V56.06A4,4,0,0,1,95.06,60H93.91a4.63,4.63,0,0,0,.09-.92V50.92A4.93,4.93,0,0,0,89.08,46h-22a4.93,4.93,0,0,0-4.92,4.92v8.16a4.63,4.63,0,0,0,.09.92H57.5a4.63,4.63,0,0,0,.09-.92V50.92A4.93,4.93,0,0,0,52.66,46H30.71a4.92,4.92,0,0,0-4.92,4.92v8.16a4.63,4.63,0,0,0,.09.92h-.94A4,4,0,0,1,21,56.06Zm69,8v8.16a.93.93,0,0,1-.92.92h-22a.92.92,0,0,1-.92-.92V50.92a.92.92,0,0,1,.92-.92h22A.93.93,0,0,1,90,50.92Zm-36.41,0v8.16a.93.93,0,0,1-.93.92H30.71a.92.92,0,0,1-.92-.92V50.92a.92.92,0,0,1,.92-.92H52.66A.93.93,0,0,1,53.59,50.92ZM112,90.19A5.83,5.83,0,0,1,106.19,96H13.81A5.83,5.83,0,0,1,8,90.19v-20a5.84,5.84,0,0,1,5.81-5.82h92.38A5.84,5.84,0,0,1,112,70.15Z" transform="translate(-4 -35)" style="fill:#444"/></svg>