<svg id="Layer_1" data-name="Layer 1" xmlns="http://www.w3.org/2000/svg" viewBox="0 0 2129.52 447.71"><title>FOOTER_8XLAND_LOGO_KOMAU_FULL</title><path d="M22.33,20.8h174.2c8.5,0,16.2,5.4,20,13.9l61.8,139.8c7.4,16.6-3.5,36-20,36H84.93c-8.4,0-16.2-5.3-20-13.8L2.43,56.8C-5.07,40.3,5.73,20.8,22.33,20.8Z" transform="translate(0)" style="fill:#ededed"/><path d="M22.33,436h174.2c8.5,0,16.2-5.4,20-13.9l61.8-139.8c7.4-16.6-3.5-36-20-36H84.93c-8.4,0-16.2,5.3-20,13.8L2.43,399.9C-5.07,416.4,5.73,436,22.33,436Z" transform="translate(0)" style="fill:#ededed"/><path d="M257.08,39.9l62.2,144.3c4.4,10.3,17.7,10,21.7-.5l55.8-144.3c3.4-8.8-2.4-18.6-11-18.6H267.83C258.93,20.8,253.13,31.1,257.08,39.9Z" transform="translate(0)" style="fill:#ededed"/><path d="M257.08,416.9l62.2-144.3c4.4-10.3,17.7-10,21.7.5l55.8,144.3c3.4,8.8-2.4,18.6-11,18.6H267.83C258.93,436,253.13,425.8,257.08,416.9Z" transform="translate(0)" style="fill:#ededed"/><path d="M756.69,122.51c0,20.89-10.15,34-18.49,36.68l-6.24,2.1v4.21s24.43,4.21,24.43,38.71V245c0,44.42-20,65.24-65.24,65.24H593.08c-45.32,0-65.24-20.89-65.24-65.24V204.21c0-20.89,10.15-34,18.49-36.68l6.24-2.1v-4.21s-24.49-4.21-24.49-38.71V81.68c0-44.42,20-65.24,65.24-65.24h98c45.32,0,65.24,20.89,65.24,65.24v40.81ZM707.53,81.68c0-13.08-5.33-19.7-16.38-19.7H593.08c-11.05,0-16.39,6.54-16.39,19.7v40.81c0,12.55,4.44,17.89,16.39,17.89h98c12,0,16.39-5.34,16.39-17.89V81.68Zm0,122.44c0-12.56-4.43-17.89-16.38-17.89H593.08c-12,0-16.39,5.33-16.39,17.89v40.81c0,13.08,5.34,19.69,16.39,19.69h98c11,0,16.39-6.54,16.39-19.69V204.14Z" transform="translate(0)" style="fill:#ededed"/><path d="M979,16.16h56.59L949.78,163.1,1035.61,310H979L906.34,186h-4.21L830.08,310h-56.6L859.31,163,773.45,16.08h56.63L902.16,140h4.21Z" transform="translate(0)" style="fill:#ededed"/><path d="M1403.91,264.34V310H1175.34V16.16h48.86V264.42h179.71Z" transform="translate(0)" style="fill:#ededed"/><path d="M1565.73,81.68c44.42,0,65.24,20.89,65.24,65.24v98c0,44.42-20.89,65.24-65.24,65.24h-81.65c-44.43,0-65.25-20.9-65.25-65.24,0-19.69,6.54-33.07,20.9-41.12,14.58-8.64,23.22-11.34,44.42-16.68l98-24.43V147.24c0-13.08-5.34-19.69-16.38-19.69h-81.59c-11,0-16.39,6.53-16.39,19.69v16.38h-48.85V147.24c0-44.42,20.89-65.24,65.24-65.24h81.63v-.32Zm16.09,119.2-98,24.43c-14.58,3.61-16.38,8.64-16.38,19.69,0,13.08,5.34,19.7,16.38,19.7h81.63c11,0,16.39-6.54,16.39-19.7Z" transform="translate(0)" style="fill:#ededed"/><path d="M1831.28,310.26V146.94c0-13.08-5.34-19.7-16.39-19.7h-81.62c-11,0-16.39,6.54-16.39,19.7V310.26h-48.8V146.94c0-44.42,20.89-65.24,65.24-65.24h81.62c44.42,0,65.24,20.89,65.24,65.24V310.26Z" transform="translate(0)" style="fill:#ededed"/><path d="M2080.67,0h48.85V245c0,44.42-20,65.24-65.24,65.24h-81.63c-45.32,0-65.24-20.9-65.24-65.24V147c0-44.42,20-65.24,65.24-65.24h98Zm-16.09,264.34c11.05,0,16.39-6.54,16.39-19.69V126.94h-98c-11,0-16.38,6.54-16.38,19.7v98c0,13.08,5.34,19.69,16.38,19.69Z" transform="translate(0)" style="fill:#ededed"/><path d="M572.78,377.28h9.63v57.17H565.88l-20.8-48.22h-.79v48.34h-9.63V377.4h16.42l20.83,48.34h.79V377.28Z" transform="translate(0)" style="fill:#ededed"/><path d="M653.5,377.28l18.8,57.17H662.22l-4.76-14.6h-23l-4.86,14.6H619.52l18.79-57.17Zm-8-12-5,6.91h-7.69l8.94-12.68H650l9.06,12.68h-7.7l-5-6.91Zm-8,45.63h17.09l-8.26-24.8h-.8Z" transform="translate(0)" style="fill:#ededed"/><path d="M747.69,377.28h9.63v57.17H740.79L720,386.11h-.8v48.34h-9.62V377.28H726l20.83,48.34h.79V377.28Z" transform="translate(0)" style="fill:#ededed"/><path d="M845.84,396.3h-9.62V390c0-2.49-1-3.85-3.17-3.85H810.86c-2.15,0-3.17,1.25-3.17,3.85v31.82c0,2.49,1,3.84,3.17,3.84h22.22c2.15,0,3.17-1.24,3.17-3.84V410.34H822v-8.83h23.88v20.38c0,8.72-4,12.68-12.67,12.68H811c-8.83,0-12.68-4.08-12.68-12.68V390.08c0-8.72,4-12.68,12.68-12.68h22.19c8.83,0,12.67,4.07,12.67,12.68Z" transform="translate(0)" style="fill:#ededed"/><path d="M987.58,377.28v8.83H968.45v48.34h-9.62V386.11H939.69v-8.83Z" transform="translate(0)" style="fill:#ededed"/><path d="M1054.71,377.28l18.8,57.17h-10.08l-4.75-14.6h-23l-4.87,14.6h-10.08l18.79-57.17Zm-7.81-12-5,6.91h-7.7l9-12.68h8.26l9.06,12.68h-7.7l-5-6.91Zm-8.15,45.63h17.1l-8.27-24.8h-.79Zm27.74-48.68h-6.79l-11.44-12.68h9.82Z" transform="translate(0)" style="fill:#ededed"/><path d="M1151.17,377.28h16.91v57.17h-9.63V386.11h-.79l-11.32,35.67h-14l-11.3-35.67h-.8v48.34h-9.39V377.28h16.75L1139,412.94h.79Z" transform="translate(0)" style="fill:#ededed"/><path d="M1310.23,377.28v8.83h-19.15v48.34h-9.63V386.11h-19.13v-8.83Z" transform="translate(0)" style="fill:#ededed"/><path d="M1385.85,377.28h9.62v57.17h-9.62V410.34h-28.64v24.11h-9.62V377.28h9.62V401.4h28.64Z" transform="translate(0)" style="fill:#ededed"/><path d="M1436.57,434.45V377.28h9.62v57.17Zm7.92,5.89a4.32,4.32,0,1,1-6.11,0,4.32,4.32,0,0,1,6.11,0l0,0Z" transform="translate(0)" style="fill:#ededed"/><path d="M1525.55,377.28h9.62v57.17h-16.52l-20.84-48.34H1497v48.34h-9.73V377.28h16.41l20.83,48.34h.79Z" transform="translate(0)" style="fill:#ededed"/><path d="M1614.42,377.28h9.66v57.17h-9.62V410.34h-28.68v24.11h-9.62V377.28h9.62V401.4h28.64Z" transform="translate(0)" style="fill:#ededed"/><path d="M1744.38,425.51h.8l15.9-48.34h10l-18.79,57.17h-15.06l-18.79-57.17h10.07Z" transform="translate(0)" style="fill:#ededed"/><path d="M1846.72,377.28h9.06c1.36-.11,1.7-.79,1.7-1.69v-5h8.26v2.16c.23,4.3.12,9.62-2.26,10.86-1.47,1.25-4.3,1.81-7.25,1.93v36.24c0,8.71-4.07,12.67-12.68,12.67h-22.18c-8.72,0-12.68-4.07-12.68-12.67v-44.5h9.62v44.5c0,2.49,1,3.84,3.17,3.84h22.19c2.15,0,3.17-1.24,3.17-3.84v-44.5Z" transform="translate(0)" style="fill:#ededed"/><path d="M1937.08,377.28h8.6c2.26.23,2.94-.56,2.94-1.69v-5h8.27v2.16c.22,4.3.11,9.62-2.27,10.86-1,1-3,1.59-5.09,1.81a19.67,19.67,0,0,1,.45,4.65v31.7c0,8.71-4,12.67-12.68,12.67h-22.22c-8.83,0-12.68-4.07-12.68-12.67V390c0-8.71,4-12.68,12.68-12.68Zm3.16,12.68c0-2.49-1-3.85-3.16-3.85h-22.2c-2.15,0-3.17,1.25-3.17,3.85v31.82c0,2.49,1,3.84,3.17,3.84h22.2c2.15,0,3.17-1.24,3.17-3.84V390Zm-11.32,50.38a4.32,4.32,0,1,1-6.11,0,4.32,4.32,0,0,1,6.11,0l0,0Z" transform="translate(0)" style="fill:#ededed"/><path d="M2031.37,377.28H2041v57.17h-16.53l-20.83-48.34h-.79v48.34h-9.62V377.28h16.41l20.83,48.34h.79V377.28Z" transform="translate(0)" style="fill:#ededed"/><path d="M2129.52,396.3h-9.62V390c0-2.49-1-3.85-3.17-3.85h-22.19c-2.15,0-3.17,1.25-3.17,3.85v31.82c0,2.49,1,3.84,3.17,3.84h22.19c2.15,0,3.17-1.24,3.17-3.84V410.34h-14.27v-8.83h23.89v20.38c0,8.72-4,12.68-12.68,12.68h-22.19c-8.83,0-12.68-4.08-12.68-12.68V390.08c0-8.72,4-12.68,12.68-12.68h22.19c8.83,0,12.68,4.07,12.68,12.68v6.22Z" transform="translate(0)" style="fill:#ededed"/></svg>